<svg class="lds-spinner" width="200px"  height="200px"  xmlns="http://www.w3.org/2000/svg" xmlns:xlink="http://www.w3.org/1999/xlink" viewBox="0 0 100 100" preserveAspectRatio="xMidYMid" style="background: none;"><g transform="rotate(0 50 50)">
  <rect x="47.5" y="19.5" rx="9.5" ry="3.9" width="5" height="13" fill="#2a518c">
  </rect>
</g><g transform="rotate(30 50 50)">
  <rect x="47.5" y="19.5" rx="9.5" ry="3.9" width="5" height="13" fill="#2a518c">
  </rect>
</g><g transform="rotate(60 50 50)">
  <rect x="47.5" y="19.5" rx="9.5" ry="3.9" width="5" height="13" fill="#2a518c">
  </rect>
</g><g transform="rotate(90 50 50)">
  <rect x="47.5" y="19.5" rx="9.5" ry="3.9" width="5" height="13" fill="#2a518c">
  </rect>
</g><g transform="rotate(120 50 50)">
  <rect x="47.5" y="19.5" rx="9.5" ry="3.9" width="5" height="13" fill="#2a518c">
  </rect>
</g><g transform="rotate(150 50 50)">
  <rect x="47.5" y="19.5" rx="9.5" ry="3.9" width="5" height="13" fill="#2a518c">
  </rect>
</g><g transform="rotate(180 50 50)">
  <rect x="47.5" y="19.5" rx="9.5" ry="3.9" width="5" height="13" fill="#2a518c">
  </rect>
</g><g transform="rotate(210 50 50)">
  <rect x="47.5" y="19.5" rx="9.5" ry="3.9" width="5" height="13" fill="#2a518c">
  </rect>
</g><g transform="rotate(240 50 50)">
  <rect x="47.5" y="19.5" rx="9.5" ry="3.9" width="5" height="13" fill="#2a518c">
  </rect>
</g><g transform="rotate(270 50 50)">
  <rect x="47.5" y="19.5" rx="9.5" ry="3.9" width="5" height="13" fill="#2a518c">
  </rect>
</g><g transform="rotate(300 50 50)">
  <rect x="47.5" y="19.5" rx="9.5" ry="3.9" width="5" height="13" fill="#2a518c">
  </rect>
</g><g transform="rotate(330 50 50)">
  <rect x="47.5" y="19.5" rx="9.5" ry="3.9" width="5" height="13" fill="#2a518c">
  </rect>
</g></svg>
